<?xml version="1.0" encoding="utf-8"?>
<!-- Generator: Adobe Illustrator 16.0.0, SVG Export Plug-In . SVG Version: 6.00 Build 0)  -->
<!DOCTYPE svg PUBLIC "-//W3C//DTD SVG 1.1//EN" "http://www.w3.org/Graphics/SVG/1.1/DTD/svg11.dtd">
<svg version="1.1" id="Layer_1" xmlns="http://www.w3.org/2000/svg" xmlns:xlink="http://www.w3.org/1999/xlink" x="0px" y="0px"
	 width="1285.439px" height="497.479px" viewBox="0 0 1285.439 497.479" enable-background="new 0 0 1285.439 497.479"
	 xml:space="preserve">
<g>
	<defs>
		<rect id="SVGID_1_" width="1285.439" height="497.479"/>
	</defs>
	<clipPath id="SVGID_2_">
		<use xlink:href="#SVGID_1_"  overflow="visible"/>
	</clipPath>
	<path clip-path="url(#SVGID_2_)" d="M488.185,460.037c0,7.202-4.308,13.527-19.409,13.527c-15.107,0-19.415-6.325-19.415-13.527
		v-34.077c0-7.199,4.308-13.523,19.415-13.523c15.101,0,19.409,6.324,19.409,13.523v4.304c0,1.231-0.439,1.761-1.581,1.761h-5.093
		c-1.231,0-1.67-0.529-1.67-1.761v-2.895c0-4.746-3.077-7.642-10.982-7.642c-7.906,0-10.89,2.896-10.89,7.642v31.265
		c0,4.744,2.984,7.639,10.89,7.639c7.905,0,10.982-2.895,10.982-7.639v-4.129c0-1.142,0.439-1.667,1.67-1.667h5.093
		c1.142,0,1.581,0.525,1.581,1.667V460.037z"/>
	<path clip-path="url(#SVGID_2_)" d="M529.844,427.367c0-4.743-3.516-7.638-11.421-7.638c-7.817,0-11.332,2.895-11.332,7.638v31.265
		c0,4.747,3.515,7.642,11.332,7.642c7.905,0,11.421-2.895,11.421-7.642V427.367z M498.486,425.96
		c0-7.199,4.918-13.526,19.937-13.526c15.111,0,20.029,6.327,20.029,13.526v34.077c0,7.203-4.918,13.523-20.029,13.523
		c-15.019,0-19.937-6.32-19.937-13.523V425.96z"/>
	<path clip-path="url(#SVGID_2_)" d="M602.064,471.192c0,1.142-0.439,1.667-1.581,1.667h-5.182c-1.142,0-1.581-0.525-1.581-1.667
		V430.88c-0.172,0.438-1.314,4.479-2.106,6.499l-10.19,24.68c-0.439,1.142-1.142,1.756-2.195,1.756h-4.568
		c-1.142,0-1.663-0.703-2.106-1.756l-10.889-25.733c-0.882-1.934-1.581-5.007-1.674-5.271v40.138c0,1.142-0.439,1.667-1.581,1.667
		H553.5c-1.142,0-1.585-0.525-1.585-1.667v-56.384c0-1.143,0.443-1.667,1.585-1.667h4.911c0.792,0,1.231,0.35,1.492,0.968
		l15.2,35.301c0.611,1.492,1.753,4.918,1.842,5.272c0.089-0.354,1.313-3.688,1.934-5.184l14.93-35.568
		c0.26-0.614,0.703-0.789,1.492-0.789h5.182c1.142,0,1.581,0.524,1.581,1.667V471.192z"/>
	<path clip-path="url(#SVGID_2_)" d="M624.936,420.43v22.924h10.893c7.902,0,11.417-2.902,11.417-7.645v-7.642
		c0-4.743-3.515-7.638-11.417-7.638H624.936z M624.936,450.642v20.461c0,1.232-0.35,1.756-1.581,1.756H618
		c-1.142,0-1.581-0.523-1.581-1.756v-56.209c0-1.227,0.439-1.756,1.581-1.756h17.828c15.108,0,19.936,6.325,19.936,13.526v10.45
		c0,7.199-4.828,13.527-19.936,13.527H624.936z"/>
	<path clip-path="url(#SVGID_2_)" d="M675.292,465.572h22.484c1.14,0,1.663,0.35,1.663,1.577v4.044c0,1.228-0.523,1.667-1.663,1.667
		H668.09c-0.964,0-1.403-0.614-1.403-1.757v-56.209c0-1.228,0.439-1.752,1.663-1.752h5.361c1.142,0,1.581,0.524,1.581,1.752V465.572
		z"/>
	<path clip-path="url(#SVGID_2_)" d="M710.89,472.861c-1.142,0-1.581-0.525-1.581-1.761v-56.205c0-1.228,0.439-1.756,1.581-1.756
		h30.03c1.142,0,1.674,0.439,1.674,1.67v3.951c0,1.229-0.532,1.671-1.674,1.671h-23.096v17.738h21.521
		c1.224,0,1.752,0.439,1.752,1.667v3.779c0,1.142-0.528,1.667-1.752,1.667h-21.521v20.29h24.066c1.142,0,1.663,0.35,1.663,1.578
		v4.043c0,1.228-0.521,1.667-1.663,1.667H710.89z"/>
	<path clip-path="url(#SVGID_2_)" d="M787.409,413.14c1.142,0,1.674,0.436,1.674,1.667v3.954c0,1.229-0.532,1.667-1.674,1.667
		h-14.048v50.673c0,1.232-0.442,1.76-1.581,1.76h-5.45c-1.143,0-1.577-0.527-1.577-1.76v-50.673h-14.055
		c-1.232,0-1.671-0.438-1.671-1.667v-3.954c0-1.231,0.438-1.667,1.671-1.667H787.409z"/>
	<path clip-path="url(#SVGID_2_)" d="M827.486,427.367c0-4.743-3.517-7.638-11.422-7.638c-7.816,0-11.332,2.895-11.332,7.638v31.265
		c0,4.747,3.516,7.642,11.332,7.642c7.905,0,11.422-2.895,11.422-7.642V427.367z M796.128,425.96
		c0-7.199,4.918-13.526,19.937-13.526c15.107,0,20.029,6.327,20.029,13.526v34.077c0,7.203-4.922,13.523-20.029,13.523
		c-15.019,0-19.937-6.32-19.937-13.523V425.96z"/>
	<path clip-path="url(#SVGID_2_)" d="M876.617,420.43v22.924h10.894c7.902,0,11.417-2.902,11.417-7.645v-7.642
		c0-4.743-3.515-7.638-11.417-7.638H876.617z M876.617,450.642v20.461c0,1.232-0.35,1.756-1.58,1.756h-5.354
		c-1.142,0-1.581-0.523-1.581-1.756v-56.209c0-1.227,0.439-1.756,1.581-1.756h17.828c15.106,0,19.936,6.325,19.936,13.526v10.45
		c0,7.199-4.829,13.527-19.936,13.527H876.617z"/>
	<path clip-path="url(#SVGID_2_)" d="M926.884,420.429v21.518h10.894c7.902,0,11.417-2.812,11.417-7.641v-6.235
		c0-4.744-3.515-7.642-11.417-7.642H926.884z M926.884,449.235v21.868c0,1.231-0.35,1.756-1.581,1.756h-5.354
		c-1.142,0-1.581-0.524-1.581-1.756v-56.209c0-1.228,0.439-1.753,1.581-1.753h17.828c15.106,0,19.936,6.321,19.936,13.523v9.134
		c0,5.356-2.723,10.186-10.277,12.295l10.539,23.01c0.438,1.056-0.351,1.756-1.581,1.756h-5.272c-1.224,0-1.402-0.7-1.927-1.756
		l-9.925-21.868h-1.492H926.884z"/>
	<path clip-path="url(#SVGID_2_)" d="M989.12,434.744c-1.051-3.247-2.277-11.856-2.366-12.82c-0.172,0.789-1.311,8.87-2.452,12.646
		l-4.994,16.16h14.719L989.12,434.744z M989.647,413.14c1.138,0,1.749,0.525,2.1,1.667l16.999,56.384
		c0.346,1.053-0.094,1.67-1.321,1.67h-5.515c-1.142,0-1.67-0.617-1.931-1.67l-4.115-13.608h-18.477l-4.036,13.608
		c-0.261,1.053-0.789,1.67-1.928,1.67h-5.078c-1.139,0-1.578-0.617-1.229-1.67l16.996-56.384c0.351-1.142,0.96-1.667,2.099-1.667
		H989.647z"/>
	<path clip-path="url(#SVGID_2_)" d="M1050.035,472.861c-1.139,0-1.748-0.525-2.099-1.667l-16.995-56.385
		c-0.35-1.142,0.089-1.67,1.228-1.67h5.863c1.143,0,1.581,0.614,1.932,1.67l10.86,36.444c1.139,3.694,2.017,10.718,2.017,10.718
		s1.221-7.377,2.191-10.543l10.949-36.619c0.351-1.056,0.782-1.67,1.921-1.67h5.346c1.229,0,1.668,0.528,1.317,1.67l-16.996,56.385
		c-0.35,1.142-0.96,1.667-2.098,1.667H1050.035z"/>
	<path clip-path="url(#SVGID_2_)" d="M1113.445,427.367c0-4.743-3.517-7.638-11.421-7.638c-7.817,0-11.332,2.895-11.332,7.638
		v31.265c0,4.747,3.515,7.642,11.332,7.642c7.904,0,11.421-2.895,11.421-7.642V427.367z M1082.087,425.96
		c0-7.199,4.918-13.526,19.938-13.526c15.11,0,20.028,6.327,20.028,13.526v34.077c0,7.203-4.918,13.523-20.028,13.523
		c-15.02,0-19.938-6.32-19.938-13.523V425.96z"/>
	<path clip-path="url(#SVGID_2_)" d="M1173.371,460.037c0,7.202-4.308,13.527-19.407,13.527c-15.108,0-19.416-6.325-19.416-13.527
		v-34.077c0-7.199,4.308-13.523,19.416-13.523c15.1,0,19.407,6.324,19.407,13.523v4.304c0,1.231-0.442,1.761-1.58,1.761h-5.094
		c-1.23,0-1.67-0.529-1.67-1.761v-2.895c0-4.746-3.077-7.642-10.981-7.642c-7.906,0-10.891,2.896-10.891,7.642v31.265
		c0,4.744,2.984,7.639,10.891,7.639c7.904,0,10.981-2.895,10.981-7.639v-4.129c0-1.142,0.439-1.667,1.67-1.667h5.094
		c1.138,0,1.58,0.525,1.58,1.667V460.037z"/>
	<path clip-path="url(#SVGID_2_)" d="M1196.676,406.729c-0.441,0.789-1.23,1.581-2.373,1.581h-3.951
		c-1.142,0-1.492-0.706-0.878-1.581l6.581-9.308c0.703-0.967,1.496-1.67,2.639-1.67h3.072c1.143,0,1.935,0.703,2.637,1.67
		l6.582,9.308c0.621,0.875,0.36,1.581-0.87,1.581h-3.958c-1.054,0-1.754-0.706-2.285-1.581l-3.598-5.885L1196.676,406.729z
		 M1186.226,472.861c-1.142,0-1.585-0.525-1.585-1.761v-56.205c0-1.228,0.443-1.756,1.585-1.756h30.03c1.143,0,1.67,0.439,1.67,1.67
		v3.951c0,1.229-0.527,1.671-1.67,1.671h-23.095v17.738h21.521c1.225,0,1.752,0.439,1.752,1.667v3.779
		c0,1.142-0.527,1.667-1.752,1.667h-21.521v20.29h24.065c1.143,0,1.663,0.35,1.663,1.578v4.043c0,1.228-0.521,1.667-1.663,1.667
		H1186.226z"/>
	<path clip-path="url(#SVGID_2_)" d="M1238.859,471.193c0,1.227-0.443,1.666-1.585,1.666h-5.36c-1.224,0-1.663-0.439-1.663-1.666
		v-7.028c0-1.143,0.439-1.67,1.663-1.67h5.36c1.142,0,1.585,0.527,1.585,1.67V471.193z M1238.156,456.173
		c-0.089,1.142-0.442,1.67-1.581,1.67h-3.868c-1.143,0-1.492-0.528-1.581-1.67l-0.875-17.563v-23.718
		c0-1.227,0.439-1.752,1.663-1.752h5.45c1.231,0,1.584,0.525,1.584,1.752v23.718L1238.156,456.173z"/>
	<path clip-path="url(#SVGID_2_)" d="M237.757,220.157l74.5-193.532h40.373l-4.25,27.028l-14.123-0.121l-90.879,242.992h-21.121
		l-50-128.741l-1.625,0.125l0.125,15.875h-14.25c0,0-11-42.751-45.25-42.876c-23.102-0.083-29.557,18.829-18.403,30.889
		c3.144,3.4,14.715,8.459,16.614,9.302c6.784,3.015,28.227,12.021,45.164,21.934c20.5,12,23.267,34.881,23.25,38
		c-0.04,7.569-0.249,16.213-7.68,29.285c-13.195,23.215-49.174,32.227-79.481,24.946c-4.746-1.141-7.831-1.95-13.519-3.981
		c-2.742-0.979-7.296-3.12-10.07-1.625c-2.657,1.433-1.935,4.645-2.184,7.375H49.761l0.122-65.5h14.5c0,0,6.268,49.5,47.875,49.5
		c0,0,27.25,0.328,27.25-21.625c-0.502-18.027-25.229-20.846-53.829-36.541c-22.687-12.451-35.918-25.043-33.755-51.937
		c1.316-16.361,15.168-37.022,33.175-42.107c41.176-11.629,65.075,12.129,69.159,1.919c0,0,0.996-3.117,1.25-5.924h14.917
		l0.333,12.757l28.266-11.723L237.757,220.157z"/>
	<path clip-path="url(#SVGID_2_)" fill="#E31013" d="M237.757,231.157l77.75-200.448h33.381l-3.798,19.366l-13.208,0.082
		l-90.375,243.135l-17.02,0.17l-49.605-128.058l-6.93,0.087l0.037,15.782l-9.103-0.043c0,0-13.129-43.489-46.863-42.868
		c-32.923,0.605-37.016,30.296-14.016,41.796c12.116,6.058,28.83,11.387,49.137,22.259c8.558,4.583,27.843,18.124,26.822,42.119
		c-1.68,39.48-44.709,54.621-77.245,48c-6.311-1.284-19.519-4.961-23.86-6.582c-1.499-0.559-6.854-1.922-9.005,1.307
		c-0.934,1.403-1.465,3.354-1.724,6.201h-8.331v-56.993l7.706-0.062c0,0,9.559,48.432,51.25,48.75
		c16.375,0.125,31.455-6,31.625-24.125c-0.17-21.441-29.298-26.4-55.438-40.746c-20.737-11.381-33.185-19.656-33.185-44.927
		c0-15.003,11.649-35.008,29.093-42.416c36.815-15.634,64.09,11.983,71.322,3.048c0,0,3.268-3.767,3.5-6.334h6.917l0.333,14.5
		l30.337-13.129L237.757,231.157z"/>
	<path clip-path="url(#SVGID_2_)" d="M141.591,333.125c0,17.332-14.414,31.385-32.194,31.385c-17.782,0-32.195-14.053-32.195-31.385
		c0-17.334,14.413-31.385,32.195-31.385C127.177,301.741,141.591,315.792,141.591,333.125"/>
	<path clip-path="url(#SVGID_2_)" d="M266.693,333.125c0,17.332-14.199,31.385-31.718,31.385c-17.518,0-31.718-14.053-31.718-31.385
		c0-17.334,14.2-31.385,31.718-31.385C252.494,301.741,266.693,315.792,266.693,333.125"/>
	<path clip-path="url(#SVGID_2_)" d="M489.666,110.011c-12.508-12.763-28.639-20.854-41.527-21.48
		c-20.246-0.983-33.776,7.56-33.776,15.354c0,10.02,21.211,12.364,41.61,18.634c21.867,6.722,32.367,14.628,32.367,31.051
		c0,30.338-27.178,53.362-70.572,53.362c-21.508,0-35.567-4.515-54.713-15.236l4.851-38.545
		c11.231,12.508,28.844,24.134,46.944,24.134c18.127,0,32.443-5.755,32.443-14.801c0-13.928-23.82-14.284-37.647-19.293
		c-25.808-9.464-39.509-14.967-39.509-36.957c0-25.886,27.218-50.444,74.843-50.444c17.514,0,34.391,6.232,50.217,16.442
		L489.666,110.011z"/>
	<path clip-path="url(#SVGID_2_)" d="M827.849,117.924c0,48.526-30.121,88.102-100.775,88.102
		c-48.086,0-73.881-24.148-73.881-63.852c0-50.732,35.395-85.67,95.428-85.67C800.259,56.504,827.849,76.566,827.849,117.924
		 M741.614,90.101c-30.777,0-46.943,20.829-46.943,51.465c0,26.818,20.658,35.069,38.07,35.069
		c32.596,0,51.369-21.708,51.369-52.345C784.11,88.965,756.085,90.101,741.614,90.101"/>
	<path clip-path="url(#SVGID_2_)" d="M584.592,57.308c-24.77,0-52.594,7.011-71.994,22.072l-4.338,35.992
		c15.57-12.873,41.881-25.485,64.07-26.547c23.994-1.149,34.588,5.871,34.605,13.084c0.018,6.449-4.171,8.684-8.763,10.926
		c-3.815,1.862-33.031,7.823-43.725,10.393c-40.31,9.685-62.816,24.768-62.816,45.749c0,25.076,19.666,37.955,51.248,37.955
		c22.941,0,43.91-10.917,55.83-27.176l-2.299,22.917l42.885-0.085c1.191-13.778,4.233-47.254,6.806-63.222
		c1.614-10.006,5.711-36.516,5.711-43.129C651.812,68.957,630.774,57.308,584.592,57.308 M557.951,180.804
		c0,0-20.252-0.509-20.252-12.763c0-12.252,16.338-18.038,20.762-19.4c4.424-1.361,40.16-11.062,45.607-14.465
		C604.067,134.176,604.067,180.804,557.951,180.804"/>
	<path clip-path="url(#SVGID_2_)" d="M539.257,54.378l2.625-20.846c0,0,11.625-13.625,46.542-3.125c28.523,8.577,42.5-5.3,42.5-5.3
		l-2.667,20.8c0,0-13,13-46.875,3C552.662,40.429,539.257,54.378,539.257,54.378"/>
	<polygon clip-path="url(#SVGID_2_)" points="331.849,221.799 358.757,329.657 419.257,221.799 464.927,221.799 381.88,361.702 
		324.119,361.702 282.947,221.799 	"/>
	<polygon clip-path="url(#SVGID_2_)" points="515.255,221.799 495.507,361.702 449.59,361.702 468.878,221.799 	"/>
	<path clip-path="url(#SVGID_2_)" d="M653.759,276.444c-14.251-24.287-40.491-24.668-51.734-24.166
		c-36.517,1.629-51.17,22.443-52.017,46.379c-1,28.25,16.882,40.5,43.25,40.5c10.611,0,37.423-3.791,55.472-29.318l-4.429,34.074
		c-14.549,13.529-35.469,22.363-58.186,22.363c-53.861,0-76.961-25.203-76.961-63.854c0-47.359,36.604-85.266,89.354-85.266
		c18.65,0,50.349,8.186,60.804,19.758L653.759,276.444z"/>
	<path clip-path="url(#SVGID_2_)" d="M695.257,304.157c-0.5,23.25,13.311,35.053,42.25,35.75
		c42.373,1.021,50.407-12.25,64.698-24.504l-3.472,28.227c-23.483,20.762-54.901,22.699-72.76,22.699
		c-44.508,0-73.43-22.75-73.43-65.635c0-22.863,11.01-48.128,27.822-61.475c16.559-13.145,36.268-21.706,62.914-22.046
		c50.427-0.647,76.973,18.173,73.654,60.292c-0.619,7.87-2.812,17.007-5.012,26.806L695.257,304.157z M740.521,248.531
		c-20.75,1.151-43.432,14.508-43.264,28.376l91-0.25C787.839,248.105,751.757,247.907,740.521,248.531"/>
	<path clip-path="url(#SVGID_2_)" d="M1135.638,304.157c-0.5,23.25,13.312,35.053,42.25,35.75
		c42.373,1.021,50.407-12.25,64.698-24.504l-3.472,28.227c-23.484,20.762-54.902,22.699-72.76,22.699
		c-44.508,0-73.43-22.75-73.43-65.635c0-22.863,11.01-48.128,27.823-61.475c16.556-13.145,36.267-21.706,62.914-22.046
		c50.425-0.647,76.972,18.173,73.653,60.292c-0.619,7.87-2.812,17.007-5.012,26.806L1135.638,304.157z M1180.901,248.531
		c-20.75,1.151-43.432,14.508-43.264,28.376l91-0.25C1228.22,248.105,1192.138,247.907,1180.901,248.531"/>
	<path clip-path="url(#SVGID_2_)" d="M961.259,362.292l-45.199,0.111l6.756-50.176c1.1-5.172,5.51-37.988,5.441-42.07
		c-0.25-15.25-12.01-20.75-23-20.75c-19.506,0-35.156,11.851-41.75,42.336l-9.25,70.174h-45.99l19.285-140.056l41.58,0.081
		l-4.375,32.59c11.231-21.781,36.242-34.836,56.023-34.836c29.124,0,53.352,6.246,53.352,37.549c0,8.981-3.951,43.027-6.5,58.787
		L961.259,362.292z"/>
	<path clip-path="url(#SVGID_2_)" d="M1054.591,222.575l53.666-0.334l-4.666,33.088l-53.334-0.255c0,0-6.519,46.743-8.666,62.001
		c-5.317,37.779,47.5,18.832,49.834,8.832l-3.668,27.168c-13.445,10.891-34.683,13.289-45.396,13.289
		c-29.397,0-49.358-5.684-46.157-45.299c0.422-5.209,0.551-10.162,1.375-14.809l7.178-51.516l-27.834,0.334l3.668-30.168h33.832
		l7-47.499h37L1054.591,222.575z"/>
	<polygon clip-path="url(#SVGID_2_)" fill="#E31013" points="282.673,103.477 43.591,103.477 56.184,58.087 300.146,58.087 	"/>
	<path clip-path="url(#SVGID_2_)" fill="#FFFFFF" d="M80.021,61.782l-5.889,23.25c-1.24,4.719-0.562,6.937,1.75,7.375
		c1.91,0.361,4.188-1.688,5.313-5.688l6.562-24.937h4.75l-6.595,23.544c-2.677,10.18-6.689,13.956-11.905,13.956
		c-5.215,0-7.341-3.945-4.664-14.125l6.414-23.375H80.021z"/>
	<path clip-path="url(#SVGID_2_)" fill="#FFFFFF" d="M101.853,61.782c2.601,0,4.405,0.375,5.598,2
		c1.788,2.435,0.945,6.618-0.443,11.5c-1.687,5.937-5.543,11.25-10.937,11.25h-3.563l-3.125,12h-4.375l9.625-36.75H101.853z
		 M93.882,79.907l3.669,0.117c2.029,0,4.137-1.405,5.206-5.117c1.085-3.765-0.126-5.75-2.125-5.75h-3.375L93.882,79.907z"/>
	<polygon clip-path="url(#SVGID_2_)" fill="#FFFFFF" points="125.257,61.782 123.193,69.112 114.257,69.032 112.382,76.532 
		121.382,76.532 119.382,83.407 110.507,83.407 108.203,91.657 117.632,91.782 115.799,98.532 102.192,98.532 112.007,61.782 	"/>
	<polygon clip-path="url(#SVGID_2_)" fill="#FFFFFF" points="182.3,61.782 180.561,69.118 171.009,69.032 169.134,76.532 
		178.134,76.532 176.134,83.407 167.259,83.407 164.955,91.657 174.384,91.782 172.552,98.532 158.943,98.532 168.759,61.782 	"/>
	<path clip-path="url(#SVGID_2_)" fill="#FFFFFF" d="M133.882,61.782c2.941,0,4.928,0.511,6.063,1.625
		c1.695,1.59,1.552,5.111,0.302,9.459c-1.308,4.56-3.865,8.979-9.115,9.728l2.625,15.938h-5.375l-2.125-15.5l-4.125,15.5h-4.7
		l10.013-36.75H133.882z M127.632,77.907l2.375,0.25c2.09,0,4.727-0.996,5.625-4.125c0.945-3.287-0.852-5-2.875-5h-2.875
		L127.632,77.907z"/>
	<path clip-path="url(#SVGID_2_)" fill="#FFFFFF" d="M190.843,61.782c2.941,0,4.842,0.449,5.977,1.562
		c1.695,1.591,1.638,5.174,0.388,9.522c-1.308,4.56-4.201,8.979-8.99,10.041l2.5,15.625h-5.375l-2.125-15.5l-4.125,15.5h-4.336
		l9.688-36.75H190.843z M184.593,77.907h2.539c2.09,0,4.413-0.793,5.461-3.875c1.529-4.5-0.852-5-2.875-5h-2.898L184.593,77.907z"/>
	<polygon clip-path="url(#SVGID_2_)" fill="#FFFFFF" points="151.632,61.782 147.757,90.657 159.382,61.782 165.971,61.782 
		156.626,98.532 151.956,98.532 161.132,66.032 147.882,98.532 143.757,98.532 147.257,66.157 139.382,98.532 135.441,98.532 
		144.757,61.782 	"/>
	<path clip-path="url(#SVGID_2_)" fill="#FFFFFF" d="M212.684,73.981c-0.937-2.819-1.426-5.241-3.926-5.324
		c-3.215-0.108-6.943,4.265-8.924,12.063c-1.953,7.687-1.04,11.611,2.058,11.752c1.924,0.089,5.615-2.19,7.866-6.648l-2.438,8.52
		c-1.793,3.125-5.608,4.875-7.375,4.875c-6,0-7.294-6.282-4.198-18.472c3.068-12.08,8.248-19.713,14.044-19.713
		c1.739,0,4.216,1.333,5.182,4.06L212.684,73.981z"/>
	<path clip-path="url(#SVGID_2_)" fill="#FFFFFF" d="M228.445,61.782l-2.99,36.75h-4.51l0.625-9.125h-7.312l-4.063,9.125h-4.224
		l16.099-36.75H228.445z M217.208,82.907l5.05-0.062l1.687-16L217.208,82.907z"/>
	<path clip-path="url(#SVGID_2_)" fill="#FFFFFF" d="M241.221,61.759c8.155-0.087,10.286,2.898,6.201,18.398
		c-3.158,11.982-8.666,18.399-15.881,18.399h-5.736l9.678-36.797H241.221z M231.599,92.032h0.346
		c6.687,1.562,10.8-7.426,12.125-14.875c1.546-8.687-2.086-8.062-5.563-8.062l-1.124,0.062L231.599,92.032z"/>
	<path clip-path="url(#SVGID_2_)" fill="#FFFFFF" d="M265.699,80.157c-3.193,12.143-8.397,19.036-13.902,19.036
		c-5.506,0-7.069-6.84-3.86-19.036c3.207-12.195,7.445-19.034,13.873-19.035C268.258,61.121,268.908,67.962,265.699,80.157
		 M252.695,77.47c-2.576,7.795-2.56,15.128,0.5,15.25c3.125,0.125,5.43-3.522,8.006-11.317c2.574-7.793,1.221-12.612-1.256-12.683
		C257.433,68.648,255.269,69.677,252.695,77.47"/>
	<path clip-path="url(#SVGID_2_)" fill="#FFFFFF" d="M280.945,73.72c-0.562-3.625-2.441-5.096-3.625-5.187
		c-2.437-0.188-4.49,1.763-5.063,3.937c-0.597,2.28,0.87,3.756,2.876,4.875c3.249,1.812,3.89,4.112,3.124,9.688
		c-0.847,6.175-5.783,12.16-10.593,12.16c-2.115,0-4.156-1.411-5.117-4.036l2.585-8.562c0.188,4.312,1.73,5.851,3.25,6.062
		c2.688,0.375,4.651-1.256,5.251-3.874c0.687-3-0.943-4.587-3.563-6.125c-2.875-1.688-2.912-6.239-2.188-9.75
		c1.463-7.089,6.153-11.786,10.875-11.786c1.42,0,3.563,1.598,4.501,3.785L280.945,73.72z"/>
	<path clip-path="url(#SVGID_2_)" fill="#FFFFFF" d="M70.818,73.72c-0.562-3.625-2.441-5.096-3.625-5.187
		c-2.437-0.188-4.49,1.763-5.063,3.937c-0.597,2.28,0.87,3.756,2.876,4.875c3.249,1.812,3.89,4.112,3.124,9.688
		c-0.847,6.175-5.783,12.16-10.593,12.16c-2.115,0-4.156-1.411-5.117-4.036l2.585-8.562c0.188,4.312,1.73,5.851,3.25,6.062
		c2.688,0.375,4.651-1.256,5.251-3.874c0.687-3-0.943-4.587-3.563-6.125c-2.875-1.688-2.912-6.239-2.188-9.75
		c1.463-7.089,6.153-11.786,10.875-11.786c1.42,0,3.563,1.598,4.501,3.785L70.818,73.72z"/>
</g>
</svg>
