<?xml version="1.0" encoding="utf-8"?>
<!-- Generator: Adobe Illustrator 16.0.0, SVG Export Plug-In . SVG Version: 6.00 Build 0)  -->
<!DOCTYPE svg PUBLIC "-//W3C//DTD SVG 1.1//EN" "http://www.w3.org/Graphics/SVG/1.1/DTD/svg11.dtd">
<svg version="1.1" id="Layer_1" xmlns="http://www.w3.org/2000/svg" xmlns:xlink="http://www.w3.org/1999/xlink" x="0px" y="0px"
	 width="629px" height="338px" viewBox="0 0 629 338" enable-background="new 0 0 629 338" xml:space="preserve">
<g>
	<g>
		<path fill="#231F20" d="M203.062,297.52l-1.151-47.43c-0.197-7.18-2.539-9.604-9.283-9.604c-7.404,0-9.771,2.389-12.716,9.102
			l-21.542,47.781c-0.854,1.904-1.589,4.039-1.768,5.121c-0.55,2.406,0.146,3.928,0.823,4.777c0.713,0.896,2.139,1.961,4.884,1.961
			c4.285,0,6.71-1.789,8.65-6.392l4.453-10.719h12.437l-0.076,8.053c-0.112,3.82,0.407,6.039,1.743,7.414
			c1.104,1.138,2.663,1.644,5.061,1.644c3.217,0,7.317-1.715,8.265-6.457c0.259-0.953,0.244-2.385,0.229-4.047
			C203.068,298.338,203.062,297.945,203.062,297.52z M180.487,280.111l7.822-18.861l-0.253,18.861H180.487z"/>
		<path fill="#231F20" d="M255.238,248.564c0.456-1.937,0.185-3.605-0.791-4.836c-1.099-1.39-2.959-2.09-5.531-2.09h-30.672
			c-4.538,0-7.685,2.305-8.64,6.358c-0.397,1.944-0.087,3.616,0.903,4.832c1.111,1.364,2.97,2.06,5.519,2.06h7.783l-9.946,46.645
			c-0.462,2.152-0.078,4.129,1.079,5.563c1.113,1.377,2.82,2.135,4.808,2.135c4,0,7.673-3.071,8.549-7.151l10.062-47.188h8.341
			C251.299,254.891,254.414,252.57,255.238,248.564z"/>
		<path fill="#231F20" d="M285.409,297.52l-1.15-47.43c-0.197-7.18-2.54-9.604-9.284-9.604c-7.409,0-9.771,2.389-12.716,9.102
			l-21.543,47.781c-0.854,1.904-1.587,4.039-1.766,5.121c-0.553,2.406,0.145,3.928,0.821,4.777c0.714,0.896,2.14,1.961,4.883,1.961
			c4.285,0,6.713-1.789,8.653-6.392l4.453-10.719h12.436l-0.075,8.053c-0.112,3.82,0.407,6.039,1.739,7.414
			c1.104,1.138,2.665,1.644,5.063,1.644c3.218,0,7.315-1.715,8.263-6.457c0.262-0.953,0.247-2.385,0.232-4.047
			C285.414,298.338,285.41,297.945,285.409,297.52z M262.836,280.111l7.821-18.861l-0.254,18.861H262.836z"/>
		<path fill="#231F20" d="M330.159,283.318c-1.061-1.305-2.688-1.965-4.842-1.965c-5.867,0-7.756,3.305-9.776,10.746
			c-0.711,2.916-3.516,5.475-6,5.475c-1.969,0-2.707-0.629-3.095-1.105c-2.169-2.668-0.37-11.268,1.532-20.35l0.802-3.563
			c3.984-19.043,6.932-20.414,11.31-20.414c0.928,0,1.587,0.221,2.015,0.674c0.694,0.736,0.979,2.221,0.85,4.383
			c-0.276,3.34-0.175,5.561,1.176,7.027c0.998,1.082,2.515,1.563,4.915,1.563c4.698,0,7.668-2.731,8.813-8.125
			c1.024-4.826,0.198-9.196-2.329-12.315c-2.766-3.412-7.396-5.222-13.396-5.222c-15.729,0-23.308,8.142-27.959,30.026
			l-2.127,10.103c-2.049,9.56-3.505,18.611,1.118,24.33c2.683,3.313,7.178,4.996,13.365,4.996c13.349,0,21.85-6.795,24.591-19.653
			C331.718,287.061,331.396,284.836,330.159,283.318z"/>
		<path fill="#231F20" d="M375.735,297.52l-1.152-47.43c-0.195-7.18-2.538-9.604-9.281-9.604c-7.408,0-9.771,2.389-12.719,9.102
			l-21.538,47.781c-0.856,1.904-1.591,4.039-1.769,5.121c-0.55,2.406,0.146,3.928,0.823,4.777c0.712,0.896,2.138,1.961,4.882,1.961
			c4.287,0,6.712-1.789,8.654-6.392l4.451-10.719h12.436l-0.074,8.053c-0.115,3.82,0.406,6.039,1.742,7.414
			c1.102,1.138,2.661,1.644,5.059,1.644c3.221,0,7.317-1.715,8.266-6.457c0.26-0.953,0.246-2.385,0.229-4.047
			C375.739,298.338,375.737,297.945,375.735,297.52z M353.156,280.111l7.822-18.861l-0.251,18.861H353.156z"/>
		<path fill="#231F20" d="M426.063,245.98c-2.369-2.922-6.01-4.342-11.125-4.342h-15.515c-5.053,0-7.992,2.432-8.989,7.416
			l-10.906,51.075c-0.533,2.662-0.251,4.613,0.86,5.972c1.091,1.328,2.88,1.977,5.472,1.977h14.983
			c12.438,0,20.802-9.654,24.854-28.689l1.775-8.248C430.15,258.459,429.698,250.467,426.063,245.98z M412.325,271.49l-1.06,5.133
			c-3.499,16.264-7.188,19.443-12.377,19.443h-3.883l9.02-42.42h4.792c2.694,0,3.651,0.799,4.137,1.399
			C414.976,257.547,413.849,264.422,412.325,271.49z"/>
		<path fill="#231F20" d="M452.185,242.621c-1.112-1.377-2.821-2.135-4.808-2.135c-3.998,0-7.675,3.072-8.548,7.152l-11.436,53.895
			c-0.461,2.152-0.077,4.129,1.08,5.563c1.113,1.377,2.82,2.135,4.806,2.135c4.002,0,7.675-3.071,8.547-7.151l11.438-53.894
			C453.725,246.029,453.342,244.055,452.185,242.621z"/>
		<path fill="#231F20" d="M481.326,240.129c-12.063,0-21.331,6.951-23.614,17.693c-1.659,7.578-0.124,12.68,5.142,17.068
			l9.735,8.053c3.348,2.854,4.331,4.447,3.562,8.213c-0.873,4.018-3.576,6.418-7.231,6.418c-1.516,0-2.634-0.412-3.321-1.223
			c-0.888-1.043-1.169-2.871-0.792-5.181c0.521-3.729,0.183-6.055-1.104-7.534c-0.974-1.121-2.428-1.662-4.445-1.662
			c-6.357,0-8.179,5.192-8.991,9.112c-0.168,0.832-1.5,8.277,2.857,13.599c2.666,3.25,6.816,4.897,12.341,4.897
			c13.754,0,22.737-6.729,25.3-18.937c2.209-10.094-1.184-15.09-6.954-19.487l-7.531-5.759c-4.536-3.504-4.5-5.604-3.958-8.155
			c0.721-3.103,3.215-5.104,6.354-5.104c1.486,0,2.543,0.33,3.138,0.986c0.631,0.697,0.867,1.879,0.702,3.518
			c-0.263,2.685-0.365,5.033,1.043,6.586c0.979,1.082,2.525,1.586,4.867,1.586c4.291,0,7.5-2.715,8.368-7.061
			c1.005-4.643,0.069-9.313-2.495-12.496C491.543,241.857,487.182,240.129,481.326,240.129z"/>
		<path fill="#231F20" d="M547.573,248.564c0.455-1.937,0.181-3.605-0.792-4.836c-1.101-1.39-2.962-2.09-5.531-2.09h-30.674
			c-4.538,0-7.684,2.305-8.639,6.358c-0.399,1.944-0.088,3.616,0.902,4.832c1.112,1.364,2.971,2.06,5.521,2.06h7.782l-9.946,46.645
			c-0.463,2.152-0.078,4.129,1.081,5.563c1.111,1.377,2.818,2.135,4.807,2.135c4,0,7.673-3.071,8.547-7.151l10.063-47.188h8.339
			C543.633,254.891,546.747,252.57,547.573,248.564z"/>
		<path fill="#231F20" d="M577.754,298.727c-0.004-0.389-0.01-0.779-0.01-1.207l-1.151-47.43c-0.196-7.18-2.539-9.604-9.284-9.604
			c-7.407,0-9.771,2.389-12.715,9.102l-21.541,47.781c-0.856,1.904-1.589,4.039-1.769,5.121c-0.551,2.406,0.146,3.928,0.822,4.777
			c0.713,0.896,2.142,1.961,4.884,1.961c4.285,0,6.71-1.789,8.652-6.392l4.452-10.719h12.435l-0.072,8.053
			c-0.114,3.82,0.404,6.039,1.741,7.414c1.104,1.138,2.662,1.644,5.061,1.644c3.218,0,7.318-1.715,8.264-6.457
			C577.781,301.818,577.769,300.387,577.754,298.727z M555.168,280.111l7.822-18.861l-0.253,18.861H555.168z"/>
	</g>
	<path fill="#ED1C24" d="M607.597,38.484c2.188-2.895,2.676-6.102,1.333-8.8c-1.277-2.565-4.008-4.098-7.31-4.098h-30.764
		c-4.533,0-9.922,2.774-12.813,6.595L521.25,80.845l-19.153-47.469c-1.794-4.44-6.906-7.79-11.896-7.79h-30.765
		c-3.206,0-5.964,1.365-7.569,3.746c-1.548,2.292-1.795,5.193-0.679,7.955l35.117,87.036c0.229,0.632,0,2.731-0.913,3.94
		l-52.838,69.875L414.481,35.256c-0.601-5.422-5.424-9.67-10.976-9.67h-29.101c-4.881,0-10.166,3.461-12.294,8.05L297.293,173.45
		V34.389c0-0.851-0.127-1.706-0.383-2.612l-0.072-0.256l-0.027-0.066c-1.276-4.007-5.042-6.78-9.252-6.78l-34.256,0.039
		c-4.521,0-9.195,2.974-11.076,6.993l-41.065,84.012L201.11,34.39c0-4.467-3.109-8.338-7.384-9.395l-0.493-0.247h-0.953
		c-0.217-0.026-0.524-0.056-0.906-0.056l-36.496,0.056c-0.393,0-0.729,0.042-0.999,0.089c-0.668,0.069-1.35,0.2-2.034,0.396
		c-0.308,0.083-0.607,0.171-0.854,0.263c-0.743,0.27-1.477,0.616-2.233,1.06l-0.127,0.077c-0.252,0.157-0.484,0.315-0.69,0.459
		c-0.211,0.134-0.417,0.276-0.61,0.428c-0.348,0.271-0.6,0.525-0.771,0.703l-0.002,0.003c-0.267,0.236-0.634,0.562-1.071,1.06
		c-0.447,0.526-0.759,1.021-0.971,1.368c-0.188,0.244-0.494,0.671-0.754,1.243L20.172,301.852c-1.242,2.721-1.112,5.59,0.356,7.873
		c1.47,2.287,4.027,3.603,7.02,3.603h33.268c4.577,0,9.246-3.021,11.104-7.188l80.604-181.097v93.423
		c0,4.236,2.809,8.016,6.855,9.279l0.289,0.107l0.301,0.057c0.562,0.137,1.354,0.291,2.285,0.291h30.768
		c0.331,0,0.617-0.029,0.858-0.066c0.684-0.059,1.389-0.188,2.181-0.406l0.107-0.029c0.186-0.051,0.361-0.104,0.547-0.161
		l0.128-0.043c0.756-0.269,1.496-0.619,2.261-1.074c0.284-0.16,0.553-0.332,0.824-0.521c0.122-0.074,0.242-0.153,0.359-0.242
		l0.074-0.053c0.354-0.264,0.614-0.518,0.784-0.688v-0.002c0.318-0.268,0.754-0.637,1.257-1.203c0.4-0.461,0.663-0.885,0.818-1.139
		l0,0c0.211-0.271,0.6-0.775,0.924-1.475l44.5-95.685v93.051c0,4.166,2.708,7.897,6.637,9.213l0.127,0.06l0.396,0.104
		c0.571,0.151,1.459,0.356,2.536,0.356l57.93,0.002c4.969,0,10.196-3.569,12.16-8.303l10.546-25.401
		c0.396-0.959,1.854-1.859,2.509-1.859h39.714c0.144,0,0.309,0.147,0.327,0.185l1.586,25.404c0.347,5.502,5.172,9.979,10.761,9.979
		h30.954c0.116,0,0.23-0.002,0.353-0.008c0.123,0.004,0.244,0.008,0.374,0.008h30.765c4.533,0,9.92-2.773,12.813-6.594
		l36.796-48.664l19.15,47.469c1.794,4.439,6.907,7.789,11.896,7.789h30.766c3.203,0,5.961-1.365,7.569-3.746
		c1.545-2.291,1.793-5.191,0.676-7.955l-35.117-87.038c-0.229-0.631,0-2.728,0.914-3.938L607.597,38.484z M355.326,154.582
		l20.654-49.743l3.115,49.743H355.326z"/>
</g>
</svg>
